# xmcd
#
# Track frame offsets:
#	150
#	14719
#	30708
#	44531
#	57694
#	74420
#	87028
#	102466
#	120794
#	136532
#	145481
#	161649
#	179981
#	196707
#	209911
#	223768
#	241611
#	255125
#	273189
#	290888
#
# Disc length: 4073 seconds
#
# Revision: 1
# Processed by: cddbd v1.4PL0 Copyright (c) Steve Scherf et al.
# Submitted via: MusicWizard 6.0.0
#
DISCID=350fe714
DTITLE=Bellamy Brothers - Howard And David and Crazy From The Heart
DYEAR=2002
DGENRE=Country
TTITLE0=Wheels
TTITLE1=Season Of The Wind
TTITLE2=The Single Man And His Wife
TTITLE3=I'm Gonna Hurt Her On The Radio
TTITLE4=Feelin' The Feelin'
TTITLE5=You're My Favorite Waste Of Time
TTITLE6=Lie To You For Your Love
TTITLE7=Old Hippie
TTITLE8=Everybody's Somebody's Darling  (With Nicolette Larson)
TTITLE9=Jeannie Ray
TTITLE10=Crazy From The Heart
TTITLE11=I'll Give You All My Love Tonight
TTITLE12=Santa Fe
TTITLE13=It's Raining Girls
TTITLE14=Ying Yang
TTITLE15=Melt Down
TTITLE16=Ramblin' Again  (With Charlie Daniels)
TTITLE17=We Don't Want To Go For It
TTITLE18=Your Name
TTITLE19=White Trash
EXTD=Howard and David MCA Records 1985 and Crazy From The Heart MCA Records 1987
EXTT0=
EXTT1=
EXTT2=
EXTT3=
EXTT4=
EXTT5=
EXTT6=
EXTT7=
EXTT8=
EXTT9=
EXTT10=
EXTT11=
EXTT12=
EXTT13=
EXTT14=
EXTT15=
EXTT16=
EXTT17=
EXTT18=
EXTT19=
PLAYORDER=
